<svg width="15" height="15" viewBox="0 0 15 15" fill="none" xmlns="http://www.w3.org/2000/svg">
<path d="M13.7568 3.53142C13.7231 3.46577 13.6743 3.40902 13.6144 3.3658C13.5546 3.32257 13.4854 3.29409 13.4125 3.28267C13.3395 3.27124 13.2649 3.27721 13.1948 3.30007C13.1246 3.32293 13.0608 3.36205 13.0086 3.41423L11.2086 5.2154C11.1202 5.30248 11.0011 5.3513 10.8771 5.3513C10.753 5.3513 10.6339 5.30248 10.5456 5.2154L9.76745 4.43611C9.72391 4.39258 9.68938 4.3409 9.66581 4.28402C9.64225 4.22714 9.63012 4.16618 9.63012 4.10461C9.63012 4.04305 9.64225 3.98208 9.66581 3.9252C9.68938 3.86833 9.72391 3.81665 9.76745 3.77312L11.5598 1.98044C11.6136 1.92672 11.6534 1.86074 11.676 1.78818C11.6986 1.71563 11.7032 1.63868 11.6894 1.56395C11.6756 1.48923 11.6439 1.41898 11.5969 1.35924C11.5499 1.29951 11.4892 1.25209 11.4198 1.22107V1.22107C10.066 0.615794 8.37614 0.931614 7.31062 1.98923C6.40534 2.88806 6.13552 4.29255 6.57087 5.84265C6.59434 5.92531 6.59448 6.01286 6.57126 6.09559C6.54804 6.17832 6.50238 6.25302 6.43933 6.3114L1.56199 10.766C1.37198 10.9366 1.21872 11.1441 1.11155 11.3759C1.00439 11.6077 0.945566 11.8588 0.938673 12.1141C0.931781 12.3694 0.976963 12.6234 1.07146 12.8606C1.16597 13.0978 1.3078 13.3133 1.48833 13.4939C1.66885 13.6745 1.88428 13.8164 2.12146 13.9111C2.35865 14.0057 2.61262 14.051 2.86788 14.0442C3.12315 14.0374 3.37436 13.9787 3.60619 13.8716C3.83801 13.7646 4.0456 13.6114 4.21628 13.4215L8.71862 8.53327C8.77617 8.47103 8.8496 8.42567 8.93101 8.40208C9.01243 8.37849 9.09873 8.37756 9.18064 8.39939C9.62195 8.5203 10.0772 8.58304 10.5347 8.58601C11.5133 8.58601 12.3719 8.26931 12.9913 7.65905C14.1383 6.52907 14.3132 4.61247 13.7568 3.53142ZM2.91521 13.1007C2.72226 13.1217 2.52753 13.0824 2.35789 12.988C2.18826 12.8937 2.05208 12.7491 1.96815 12.5741C1.88423 12.399 1.85669 12.2023 1.88934 12.011C1.922 11.8196 2.01323 11.6432 2.15045 11.5059C2.28768 11.3686 2.46412 11.2773 2.65544 11.2446C2.84676 11.2119 3.04351 11.2394 3.21856 11.3232C3.3936 11.4071 3.5383 11.5432 3.63268 11.7128C3.72706 11.8824 3.76648 12.0771 3.74548 12.2701C3.72238 12.4824 3.62749 12.6805 3.47651 12.8315C3.32553 12.9825 3.12751 13.0775 2.91521 13.1007V13.1007Z" fill="white"/>
</svg>
